<?xml version="1.0" encoding="UTF-8"?>
<svg xmlns="http://www.w3.org/2000/svg" width="189" height="48" viewBox="0 0 189 48" fill="none">
  <path d="M21.58 4C17.94 4 15 6.90426 15 10.5C15 14.0681 17.94 16.9723 21.552 17C20.656 16.9723 19.956 16.2532 19.956 15.3681C19.956 14.483 20.684 13.7362 21.608 13.7362C25.528 13.7362 34.236 13.7362 38.072 13.7362C40.788 13.7362 43 11.5511 43 8.86812C43 6.1851 40.788 4 38.072 4L21.58 4Z" fill="#5720B7"></path>
  <path d="M13.58 17C9.94 17 7 19.9043 7 23.5C7 27.0681 9.94 29.9723 13.552 30C12.656 29.9723 11.956 29.2532 11.956 28.3681C11.956 27.483 12.684 26.7362 13.608 26.7362C17.528 26.7362 26.236 26.7362 30.072 26.7362C32.788 26.7362 35 24.5511 35 21.8681C35 19.1851 32.788 17 30.072 17L13.58 17Z" fill="#6927DA"></path>
  <path d="M8.05 30C4.15 30 1 33.1277 1 37C1 40.8426 4.15 43.9702 8.01998 44C7.05999 43.9702 6.31 43.1958 6.31 42.2425C6.31 41.2894 7.09002 40.4851 8.08003 40.4851C12.28 40.4851 21.61 40.4851 25.72 40.4851C28.63 40.4851 31 38.1319 31 35.2426C31 32.3532 28.63 30 25.72 30L8.05 30Z" fill="#7839EE"></path>
  <path d="M52.9805 33.9091V12.9091H66.4805V16.5091H56.9405V21.5191H65.6405V25.1191H56.9405V30.3091H66.6605V33.9091H52.9805Z" fill="#101828"></path>
  <path d="M68.2118 39.9091V19.0291H71.9318V20.8291H72.4718C72.8118 20.2491 73.3418 19.7391 74.0618 19.2991C74.7818 18.8391 75.8118 18.6091 77.1518 18.6091C78.3518 18.6091 79.4618 18.9091 80.4818 19.5091C81.5018 20.0891 82.3218 20.9491 82.9418 22.0891C83.5618 23.2291 83.8718 24.6091 83.8718 26.2291V26.7091C83.8718 28.3291 83.5618 29.7091 82.9418 30.8491C82.3218 31.9891 81.5018 32.8591 80.4818 33.4591C79.4618 34.0391 78.3518 34.3291 77.1518 34.3291C76.2518 34.3291 75.4918 34.2191 74.8718 33.9991C74.2718 33.7991 73.7818 33.5391 73.4018 33.2191C73.0418 32.8791 72.7518 32.5391 72.5318 32.1991H71.9918V39.9091H68.2118ZM76.0118 31.0291C77.1918 31.0291 78.1618 30.6591 78.9218 29.9191C79.7018 29.1591 80.0918 28.0591 80.0918 26.6191V26.3191C80.0918 24.8791 79.7018 23.7891 78.9218 23.0491C78.1418 22.2891 77.1718 21.9091 76.0118 21.9091C74.8518 21.9091 73.8818 22.2891 73.1018 23.0491C72.3218 23.7891 71.9318 24.8791 71.9318 26.3191V26.6191C71.9318 28.0591 72.3218 29.1591 73.1018 29.9191C73.8818 30.6591 74.8518 31.0291 76.0118 31.0291Z" fill="#101828"></path>
  <path d="M85.8427 33.9091V19.0291H89.6227V33.9091H85.8427ZM87.7327 17.2891C87.0527 17.2891 86.4727 17.0691 85.9927 16.6291C85.5327 16.1891 85.3027 15.6091 85.3027 14.8891C85.3027 14.1691 85.5327 13.5891 85.9927 13.1491C86.4727 12.7091 87.0527 12.4891 87.7327 12.4891C88.4327 12.4891 89.0127 12.7091 89.4727 13.1491C89.9327 13.5891 90.1627 14.1691 90.1627 14.8891C90.1627 15.6091 89.9327 16.1891 89.4727 16.6291C89.0127 17.0691 88.4327 17.2891 87.7327 17.2891Z" fill="#101828"></path>
  <path d="M99.3014 34.3291C97.8614 34.3291 96.5514 34.0291 95.3714 33.4291C94.2114 32.8291 93.2914 31.9591 92.6114 30.8191C91.9314 29.6791 91.5914 28.2991 91.5914 26.6791V26.2591C91.5914 24.6391 91.9314 23.2591 92.6114 22.1191C93.2914 20.9791 94.2114 20.1091 95.3714 19.5091C96.5514 18.9091 97.8614 18.6091 99.3014 18.6091C100.721 18.6091 101.941 18.8591 102.961 19.3591C103.981 19.8591 104.801 20.5491 105.421 21.4291C106.061 22.2891 106.481 23.2691 106.681 24.3691L103.021 25.1491C102.941 24.5491 102.761 24.0091 102.481 23.5291C102.201 23.0491 101.801 22.6691 101.281 22.3891C100.781 22.1091 100.151 21.9691 99.3914 21.9691C98.6314 21.9691 97.9414 22.1391 97.3214 22.4791C96.7214 22.7991 96.2414 23.2891 95.8814 23.9491C95.5414 24.5891 95.3714 25.3791 95.3714 26.3191V26.6191C95.3714 27.5591 95.5414 28.3591 95.8814 29.0191C96.2414 29.6591 96.7214 30.1491 97.3214 30.4891C97.9414 30.8091 98.6314 30.9691 99.3914 30.9691C100.531 30.9691 101.391 30.6791 101.971 30.0991C102.571 29.4991 102.951 28.7191 103.111 27.7591L106.771 28.6291C106.511 29.6891 106.061 30.6591 105.421 31.5391C104.801 32.3991 103.981 33.0791 102.961 33.5791C101.941 34.0791 100.721 34.3291 99.3014 34.3291Z" fill="#101828"></path>
  <path d="M114.06 34.1491C112.9 34.1491 111.88 33.8891 111 33.3691C110.14 32.8291 109.47 32.0891 108.99 31.1491C108.51 30.2091 108.27 29.1291 108.27 27.9091V19.0291H112.05V27.6091C112.05 28.7291 112.32 29.5691 112.86 30.1291C113.42 30.6891 114.21 30.9691 115.23 30.9691C116.39 30.9691 117.29 30.5891 117.93 29.8291C118.57 29.0491 118.89 27.9691 118.89 26.5891V19.0291H122.67V33.9091H118.95V31.9591H118.41C118.17 32.4591 117.72 32.9491 117.06 33.4291C116.4 33.9091 115.4 34.1491 114.06 34.1491Z" fill="#101828"></path>
  <path d="M125.376 33.9091V19.0291H129.096V20.7091H129.636C129.856 20.1091 130.216 19.6691 130.716 19.3891C131.236 19.1091 131.836 18.9691 132.516 18.9691H134.316V22.3291H132.456C131.496 22.3291 130.706 22.5891 130.086 23.1091C129.466 23.6091 129.156 24.3891 129.156 25.4491V33.9091H125.376Z" fill="#101828"></path>
  <path d="M135.77 33.9091V19.0291H139.55V33.9091H135.77ZM137.66 17.2891C136.98 17.2891 136.4 17.0691 135.92 16.6291C135.46 16.1891 135.23 15.6091 135.23 14.8891C135.23 14.1691 135.46 13.5891 135.92 13.1491C136.4 12.7091 136.98 12.4891 137.66 12.4891C138.36 12.4891 138.94 12.7091 139.4 13.1491C139.86 13.5891 140.09 14.1691 140.09 14.8891C140.09 15.6091 139.86 16.1891 139.4 16.6291C138.94 17.0691 138.36 17.2891 137.66 17.2891Z" fill="#101828"></path>
  <path d="M149.319 34.3291C147.839 34.3291 146.509 34.0291 145.329 33.4291C144.149 32.8291 143.219 31.9591 142.539 30.8191C141.859 29.6791 141.519 28.3091 141.519 26.7091V26.2291C141.519 24.6291 141.859 23.2591 142.539 22.1191C143.219 20.9791 144.149 20.1091 145.329 19.5091C146.509 18.9091 147.839 18.6091 149.319 18.6091C150.799 18.6091 152.129 18.9091 153.309 19.5091C154.489 20.1091 155.419 20.9791 156.099 22.1191C156.779 23.2591 157.119 24.6291 157.119 26.2291V26.7091C157.119 28.3091 156.779 29.6791 156.099 30.8191C155.419 31.9591 154.489 32.8291 153.309 33.4291C152.129 34.0291 150.799 34.3291 149.319 34.3291ZM149.319 30.9691C150.479 30.9691 151.439 30.5991 152.199 29.8591C152.959 29.0991 153.339 28.0191 153.339 26.6191V26.3191C153.339 24.9191 152.959 23.8491 152.199 23.1091C151.459 22.3491 150.499 21.9691 149.319 21.9691C148.159 21.9691 147.199 22.3491 146.439 23.1091C145.679 23.8491 145.299 24.9191 145.299 26.3191V26.6191C145.299 28.0191 145.679 29.0991 146.439 29.8591C147.199 30.5991 148.159 30.9691 149.319 30.9691Z" fill="#101828"></path>
  <path d="M164.778 34.1491C163.618 34.1491 162.598 33.8891 161.718 33.3691C160.858 32.8291 160.188 32.0891 159.708 31.1491C159.228 30.2091 158.988 29.1291 158.988 27.9091V19.0291H162.768V27.6091C162.768 28.7291 163.038 29.5691 163.578 30.1291C164.138 30.6891 164.928 30.9691 165.948 30.9691C167.108 30.9691 168.008 30.5891 168.648 29.8291C169.288 29.0491 169.608 27.9691 169.608 26.5891V19.0291H173.388V33.9091H169.668V31.9591H169.128C168.888 32.4591 168.438 32.9491 167.778 33.4291C167.118 33.9091 166.118 34.1491 164.778 34.1491Z" fill="#101828"></path>
  <path d="M182.275 34.3291C180.335 34.3291 178.745 33.9091 177.505 33.0691C176.265 32.2291 175.515 31.0291 175.255 29.4691L178.735 28.5691C178.875 29.2691 179.105 29.8191 179.425 30.2191C179.765 30.6191 180.175 30.9091 180.655 31.0891C181.155 31.2491 181.695 31.3291 182.275 31.3291C183.155 31.3291 183.805 31.1791 184.225 30.8791C184.645 30.5591 184.855 30.1691 184.855 29.7091C184.855 29.2491 184.655 28.8991 184.255 28.6591C183.855 28.3991 183.215 28.1891 182.335 28.0291L181.495 27.8791C180.455 27.6791 179.505 27.4091 178.645 27.0691C177.785 26.7091 177.095 26.2191 176.575 25.5991C176.055 24.9791 175.795 24.1791 175.795 23.1991C175.795 21.7191 176.335 20.5891 177.415 19.8091C178.495 19.0091 179.915 18.6091 181.675 18.6091C183.335 18.6091 184.715 18.9791 185.815 19.7191C186.915 20.4591 187.635 21.4291 187.975 22.6291L184.465 23.7091C184.305 22.9491 183.975 22.4091 183.475 22.0891C182.995 21.7691 182.395 21.6091 181.675 21.6091C180.955 21.6091 180.405 21.7391 180.025 21.9991C179.645 22.2391 179.455 22.5791 179.455 23.0191C179.455 23.4991 179.655 23.8591 180.055 24.0991C180.455 24.3191 180.995 24.4891 181.675 24.6091L182.515 24.7591C183.635 24.9591 184.645 25.2291 185.545 25.5691C186.465 25.8891 187.185 26.3591 187.705 26.9791C188.245 27.5791 188.515 28.3991 188.515 29.4391C188.515 30.9991 187.945 32.2091 186.805 33.0691C185.685 33.9091 184.175 34.3291 182.275 34.3291Z" fill="#101828"></path>
</svg>
