<?xml version="1.0" encoding="UTF-8"?>
<svg xmlns="http://www.w3.org/2000/svg" width="202" height="48" viewBox="0 0 202 48" fill="none">
  <path d="M23.9589 26C23.4508 19.8405 18.2907 15 12 15C5.37258 15 0 20.3726 0 27C0 33.6274 5.37258 39 12 39H30V26H23.9589Z" fill="#528BFF"></path>
  <circle cx="29" cy="24" r="15" fill="#7839EE"></circle>
  <path d="M52.8965 24.2001C52.8965 22.2027 53.2792 20.4574 54.0445 18.9641C54.8285 17.4521 55.9392 16.2854 57.3765 15.4641C58.8325 14.6427 60.5405 14.2321 62.5005 14.2321C64.0312 14.2321 65.4032 14.5307 66.6165 15.1281C67.8298 15.7254 68.8098 16.5654 69.5565 17.6481C70.3032 18.7307 70.7512 19.9814 70.9005 21.4001H66.7005C66.4578 20.2801 65.9445 19.4027 65.1605 18.7681C64.3952 18.1147 63.4338 17.7881 62.2765 17.7881C60.7085 17.7881 59.4672 18.3761 58.5525 19.5521C57.6378 20.7281 57.1805 22.2774 57.1805 24.2001C57.1805 26.1041 57.6378 27.6534 58.5525 28.8481C59.4672 30.0241 60.7085 30.6121 62.2765 30.6121C63.4338 30.6121 64.3952 30.2947 65.1605 29.6601C65.9445 29.0067 66.4578 28.1201 66.7005 27.0001H70.9005C70.7512 28.4187 70.3032 29.6694 69.5565 30.7521C68.8098 31.8347 67.8298 32.6747 66.6165 33.2721C65.4032 33.8694 64.0312 34.1681 62.5005 34.1681C60.5405 34.1681 58.8325 33.7574 57.3765 32.9361C55.9392 32.1147 54.8285 30.9574 54.0445 29.4641C53.2792 27.9521 52.8965 26.1974 52.8965 24.2001Z" fill="#101828"></path>
  <path d="M71.9126 14.4001H75.8606V34.0001H71.9126V14.4001Z" fill="#101828"></path>
  <path d="M84.5199 34.1681C83.0079 34.1681 81.6732 33.8694 80.5159 33.2721C79.3772 32.6561 78.4905 31.7881 77.8559 30.6681C77.2399 29.5481 76.9319 28.2601 76.9319 26.8041C76.9319 25.3481 77.2399 24.0601 77.8559 22.9401C78.4905 21.8201 79.3772 20.9614 80.5159 20.3641C81.6732 19.7481 83.0079 19.4401 84.5199 19.4401C86.0319 19.4401 87.3572 19.7481 88.4959 20.3641C89.6532 20.9614 90.5399 21.8201 91.1559 22.9401C91.7905 24.0601 92.1079 25.3481 92.1079 26.8041C92.1079 28.2787 91.7905 29.5761 91.1559 30.6961C90.5399 31.7974 89.6532 32.6561 88.4959 33.2721C87.3572 33.8694 86.0319 34.1681 84.5199 34.1681ZM84.5199 30.9481C85.6212 30.9481 86.4892 30.5654 87.1239 29.8001C87.7772 29.0347 88.1039 28.0361 88.1039 26.8041C88.1039 25.5721 87.7772 24.5734 87.1239 23.8081C86.4892 23.0427 85.6212 22.6601 84.5199 22.6601C83.4372 22.6601 82.5692 23.0427 81.9159 23.8081C81.2812 24.5734 80.9639 25.5721 80.9639 26.8041C80.9639 28.0361 81.2812 29.0347 81.9159 29.8001C82.5692 30.5654 83.4372 30.9481 84.5199 30.9481Z" fill="#101828"></path>
  <path d="M106.713 19.6081V34.0001H103.213L102.849 32.2641C102.345 32.8614 101.757 33.3281 101.085 33.6641C100.413 34.0001 99.5916 34.1681 98.6209 34.1681C96.9409 34.1681 95.5689 33.6547 94.5049 32.6281C93.4409 31.5827 92.9089 29.8467 92.9089 27.4201V19.6081H96.8569V26.9441C96.8569 28.2507 97.0809 29.2401 97.5289 29.9121C97.9956 30.5654 98.7049 30.8921 99.6569 30.8921C100.646 30.8921 101.412 30.5281 101.953 29.8001C102.494 29.0534 102.765 28.0174 102.765 26.6921V19.6081H106.713Z" fill="#101828"></path>
  <path d="M122.73 14.4001V34.0001H119.286L118.894 32.0121C117.792 33.4494 116.299 34.1681 114.414 34.1681C113.144 34.1681 112.006 33.8694 110.998 33.2721C109.99 32.6561 109.196 31.7881 108.618 30.6681C108.058 29.5481 107.778 28.2507 107.778 26.7761C107.778 25.3201 108.058 24.0414 108.618 22.9401C109.196 21.8201 109.99 20.9614 110.998 20.3641C112.024 19.7481 113.172 19.4401 114.442 19.4401C116.308 19.4401 117.755 20.0934 118.782 21.4001V14.4001H122.73ZM115.338 30.9481C116.402 30.9481 117.251 30.5747 117.886 29.8281C118.52 29.0627 118.838 28.0641 118.838 26.8321C118.838 25.5814 118.52 24.5734 117.886 23.8081C117.251 23.0427 116.402 22.6601 115.338 22.6601C114.274 22.6601 113.415 23.0427 112.762 23.8081C112.127 24.5734 111.81 25.5721 111.81 26.8041C111.81 28.0361 112.127 29.0347 112.762 29.8001C113.415 30.5654 114.274 30.9481 115.338 30.9481Z" fill="#101828"></path>
  <path d="M123.242 14.4001L127.582 14.3721L131.194 28.7081L135.03 14.4001H138.81L142.534 28.7081L146.23 14.4001H150.486L145.054 34.0001H140.21L136.822 20.9801L133.518 34.0001H128.674L123.242 14.4001Z" fill="#101828"></path>
  <path d="M163.66 30.6681V34.0001H161.644C159.834 34.0001 158.947 33.2161 158.984 31.6481C158.462 32.4694 157.818 33.0947 157.052 33.5241C156.287 33.9534 155.363 34.1681 154.28 34.1681C152.675 34.1681 151.378 33.8041 150.388 33.0761C149.418 32.3294 148.932 31.2841 148.932 29.9401C148.932 28.4094 149.492 27.2334 150.612 26.4121C151.751 25.5721 153.394 25.1521 155.54 25.1521H158.396V24.4521C158.396 23.7987 158.154 23.2854 157.668 22.9121C157.183 22.5201 156.53 22.3241 155.708 22.3241C154.98 22.3241 154.383 22.4827 153.916 22.8001C153.45 23.1174 153.17 23.5467 153.076 24.0881H149.268C149.399 22.6134 150.052 21.4747 151.228 20.6721C152.404 19.8507 153.963 19.4401 155.904 19.4401C157.939 19.4401 159.507 19.8881 160.608 20.7841C161.728 21.6801 162.288 22.9774 162.288 24.6761V29.7441C162.288 30.0987 162.363 30.3414 162.512 30.4721C162.662 30.6027 162.895 30.6681 163.212 30.6681H163.66ZM158.396 27.7841H155.512C154.691 27.7841 154.047 27.9521 153.58 28.2881C153.132 28.6054 152.908 29.0627 152.908 29.6601C152.908 30.1641 153.095 30.5654 153.468 30.8641C153.86 31.1627 154.383 31.3121 155.036 31.3121C156.063 31.3121 156.875 31.0227 157.472 30.4441C158.07 29.8467 158.378 29.0534 158.396 28.0641V27.7841Z" fill="#101828"></path>
  <path d="M164.992 22.9401H162.612V19.6081H164.992V15.5761H168.94V19.6081H172.216V22.9401H168.94V29.2401C168.94 29.7441 169.042 30.1081 169.248 30.3321C169.472 30.5561 169.836 30.6681 170.34 30.6681H172.384V34.0001H169.108C166.364 34.0001 164.992 32.6281 164.992 29.8841V22.9401Z" fill="#101828"></path>
  <path d="M186.541 28.5401C186.28 30.2947 185.533 31.6761 184.301 32.6841C183.088 33.6734 181.511 34.1681 179.569 34.1681C178.076 34.1681 176.769 33.8694 175.649 33.2721C174.529 32.6561 173.661 31.7881 173.045 30.6681C172.448 29.5481 172.149 28.2601 172.149 26.8041C172.149 25.3294 172.448 24.0414 173.045 22.9401C173.661 21.8201 174.529 20.9614 175.649 20.3641C176.788 19.7481 178.104 19.4401 179.597 19.4401C181.52 19.4401 183.088 19.9347 184.301 20.9241C185.515 21.8947 186.261 23.2481 186.541 24.9841H182.453C182.285 24.2747 181.949 23.7147 181.445 23.3041C180.941 22.8747 180.316 22.6601 179.569 22.6601C178.543 22.6601 177.721 23.0427 177.105 23.8081C176.489 24.5734 176.181 25.5721 176.181 26.8041C176.181 28.0361 176.489 29.0347 177.105 29.8001C177.721 30.5654 178.543 30.9481 179.569 30.9481C180.335 30.9481 180.969 30.7334 181.473 30.3041C181.996 29.8747 182.332 29.2867 182.481 28.5401H186.541Z" fill="#101828"></path>
  <path d="M195.762 19.4401C197.461 19.4401 198.851 19.9627 199.934 21.0081C201.035 22.0534 201.586 23.7801 201.586 26.1881V34.0001H197.638V26.3561C197.638 25.1614 197.395 24.2561 196.91 23.6401C196.425 23.0054 195.697 22.6881 194.726 22.6881C193.718 22.6881 192.925 23.0334 192.346 23.7241C191.786 24.4147 191.506 25.3761 191.506 26.6081V34.0001H187.558V14.4001H191.506V21.3721C192.57 20.0841 193.989 19.4401 195.762 19.4401Z" fill="#101828"></path>
</svg>
