<?xml version="1.0" encoding="UTF-8"?>
<svg xmlns="http://www.w3.org/2000/svg" width="202" height="48" viewBox="0 0 202 48" fill="none">
  <path fill-rule="evenodd" clip-rule="evenodd" d="M0 24C13.9836 24 22 15.9836 22 2C22 15.9836 30.0164 24 44 24C30.0164 24 22 32.0164 22 46C22 32.0164 13.9836 24 0 24Z" fill="#101828"></path>
  <path d="M52.6904 33.9092L60.3704 12.9092H64.6904L72.3704 33.9092H68.2904L66.6104 29.0492H58.4204L56.7104 33.9092H52.6904ZM59.4704 26.0492H65.5604L62.5004 17.3192L59.4704 26.0492Z" fill="#101828"></path>
  <path d="M80.0725 34.2692C78.5525 34.2692 77.2125 33.9392 76.0525 33.2792C74.8925 32.6192 73.9725 31.6992 73.2925 30.5192C72.6325 29.3392 72.3025 27.9892 72.3025 26.4692C72.3025 24.9492 72.6325 23.5992 73.2925 22.4192C73.9725 21.2392 74.8925 20.3192 76.0525 19.6592C77.2125 18.9992 78.5525 18.6692 80.0725 18.6692C81.9725 18.6692 83.5725 19.1692 84.8725 20.1692C86.1725 21.1492 87.0025 22.5092 87.3625 24.2492H83.3125C83.1125 23.5292 82.7125 22.9692 82.1125 22.5692C81.5325 22.1492 80.8425 21.9392 80.0425 21.9392C78.9825 21.9392 78.0825 22.3392 77.3425 23.1392C76.6025 23.9392 76.2325 25.0492 76.2325 26.4692C76.2325 27.8892 76.6025 28.9992 77.3425 29.7992C78.0825 30.5992 78.9825 30.9992 80.0425 30.9992C80.8425 30.9992 81.5325 30.7992 82.1125 30.3992C82.7125 29.9992 83.1125 29.4292 83.3125 28.6892H87.3625C87.0025 30.3692 86.1725 31.7192 84.8725 32.7392C83.5725 33.7592 81.9725 34.2692 80.0725 34.2692Z" fill="#101828"></path>
  <path d="M89.2707 33.9092V19.0292H92.6607L92.9907 21.0392C93.4707 20.3192 94.1007 19.7492 94.8807 19.3292C95.6807 18.8892 96.6007 18.6692 97.6407 18.6692C99.9407 18.6692 101.571 19.5592 102.531 21.3392C103.071 20.5192 103.791 19.8692 104.691 19.3892C105.611 18.9092 106.611 18.6692 107.691 18.6692C109.631 18.6692 111.121 19.2492 112.161 20.4092C113.201 21.5692 113.721 23.2692 113.721 25.5092V33.9092H109.881V25.8692C109.881 24.5892 109.631 23.6092 109.131 22.9292C108.651 22.2492 107.901 21.9092 106.881 21.9092C105.841 21.9092 105.001 22.2892 104.361 23.0492C103.741 23.8092 103.431 24.8692 103.431 26.2292V33.9092H99.5907V25.8692C99.5907 24.5892 99.3407 23.6092 98.8407 22.9292C98.3407 22.2492 97.5707 21.9092 96.5307 21.9092C95.5107 21.9092 94.6807 22.2892 94.0407 23.0492C93.4207 23.8092 93.1107 24.8692 93.1107 26.2292V33.9092H89.2707Z" fill="#101828"></path>
  <path d="M123.096 34.2692C121.596 34.2692 120.266 33.9492 119.106 33.3092C117.946 32.6692 117.036 31.7692 116.376 30.6092C115.716 29.4492 115.386 28.1092 115.386 26.5892C115.386 25.0492 115.706 23.6792 116.346 22.4792C117.006 21.2792 117.906 20.3492 119.046 19.6892C120.206 19.0092 121.566 18.6692 123.126 18.6692C124.586 18.6692 125.876 18.9892 126.996 19.6292C128.116 20.2692 128.986 21.1492 129.606 22.2692C130.246 23.3692 130.566 24.5992 130.566 25.9592C130.566 26.1792 130.556 26.4092 130.536 26.6492C130.536 26.8892 130.526 27.1392 130.506 27.3992H119.196C119.276 28.5592 119.676 29.4692 120.396 30.1292C121.136 30.7892 122.026 31.1192 123.066 31.1192C123.846 31.1192 124.496 30.9492 125.016 30.6092C125.556 30.2492 125.956 29.7892 126.216 29.2292H130.116C129.836 30.1692 129.366 31.0292 128.706 31.8092C128.066 32.5692 127.266 33.1692 126.306 33.6092C125.366 34.0492 124.296 34.2692 123.096 34.2692ZM123.126 21.7892C122.186 21.7892 121.356 22.0592 120.636 22.5992C119.916 23.1192 119.456 23.9192 119.256 24.9992H126.666C126.606 24.0192 126.246 23.2392 125.586 22.6592C124.926 22.0792 124.106 21.7892 123.126 21.7892Z" fill="#101828"></path>
  <path d="M147.545 34.2692C145.425 34.2692 143.605 33.8192 142.085 32.9192C140.565 31.9992 139.395 30.7292 138.575 29.1092C137.755 27.4692 137.345 25.5792 137.345 23.4392C137.345 21.2992 137.755 19.4092 138.575 17.7692C139.395 16.1292 140.565 14.8492 142.085 13.9292C143.605 13.0092 145.425 12.5492 147.545 12.5492C150.065 12.5492 152.125 13.1792 153.725 14.4392C155.345 15.6792 156.355 17.4292 156.755 19.6892H152.525C152.265 18.5492 151.705 17.6592 150.845 17.0192C150.005 16.3592 148.885 16.0292 147.485 16.0292C145.545 16.0292 144.025 16.6892 142.925 18.0092C141.825 19.3292 141.275 21.1392 141.275 23.4392C141.275 25.7392 141.825 27.5492 142.925 28.8692C144.025 30.1692 145.545 30.8192 147.485 30.8192C148.885 30.8192 150.005 30.5192 150.845 29.9192C151.705 29.2992 152.265 28.4492 152.525 27.3692H156.755C156.355 29.5292 155.345 31.2192 153.725 32.4392C152.125 33.6592 150.065 34.2692 147.545 34.2692Z" fill="#101828"></path>
  <path d="M165.704 34.2692C164.264 34.2692 162.964 33.9392 161.804 33.2792C160.664 32.6192 159.754 31.7092 159.074 30.5492C158.414 29.3692 158.084 28.0092 158.084 26.4692C158.084 24.9292 158.424 23.5792 159.104 22.4192C159.784 21.2392 160.694 20.3192 161.834 19.6592C162.994 18.9992 164.294 18.6692 165.734 18.6692C167.154 18.6692 168.434 18.9992 169.574 19.6592C170.734 20.3192 171.644 21.2392 172.304 22.4192C172.984 23.5792 173.324 24.9292 173.324 26.4692C173.324 28.0092 172.984 29.3692 172.304 30.5492C171.644 31.7092 170.734 32.6192 169.574 33.2792C168.414 33.9392 167.124 34.2692 165.704 34.2692ZM165.704 30.9392C166.704 30.9392 167.574 30.5692 168.314 29.8292C169.054 29.0692 169.424 27.9492 169.424 26.4692C169.424 24.9892 169.054 23.8792 168.314 23.1392C167.574 22.3792 166.714 21.9992 165.734 21.9992C164.714 21.9992 163.834 22.3792 163.094 23.1392C162.374 23.8792 162.014 24.9892 162.014 26.4692C162.014 27.9492 162.374 29.0692 163.094 29.8292C163.834 30.5692 164.704 30.9392 165.704 30.9392Z" fill="#101828"></path>
  <path d="M175.257 33.9092V19.0292H178.677L179.037 21.8192C179.577 20.8592 180.307 20.0992 181.227 19.5392C182.167 18.9592 183.267 18.6692 184.527 18.6692V22.7192H183.447C182.607 22.7192 181.857 22.8492 181.197 23.1092C180.537 23.3692 180.017 23.8192 179.637 24.4592C179.277 25.0992 179.097 25.9892 179.097 27.1292V33.9092H175.257Z" fill="#101828"></path>
  <path d="M185.652 40.5092V19.0292H189.072L189.492 21.1592C189.972 20.4992 190.602 19.9192 191.382 19.4192C192.182 18.9192 193.212 18.6692 194.472 18.6692C195.872 18.6692 197.122 19.0092 198.222 19.6892C199.322 20.3692 200.192 21.2992 200.832 22.4792C201.472 23.6592 201.792 24.9992 201.792 26.4992C201.792 27.9992 201.472 29.3392 200.832 30.5192C200.192 31.6792 199.322 32.5992 198.222 33.2792C197.122 33.9392 195.872 34.2692 194.472 34.2692C193.352 34.2692 192.372 34.0592 191.532 33.6392C190.692 33.2192 190.012 32.6292 189.492 31.8692V40.5092H185.652ZM193.662 30.9092C194.882 30.9092 195.892 30.4992 196.692 29.6792C197.492 28.8592 197.892 27.7992 197.892 26.4992C197.892 25.1992 197.492 24.1292 196.692 23.2892C195.892 22.4492 194.882 22.0292 193.662 22.0292C192.422 22.0292 191.402 22.4492 190.602 23.2892C189.822 24.1092 189.432 25.1692 189.432 26.4692C189.432 27.7692 189.822 28.8392 190.602 29.6792C191.402 30.4992 192.422 30.9092 193.662 30.9092Z" fill="#101828"></path>
</svg>
